<?xml version="1.0" encoding="utf-8"?>
<!-- Generator: Adobe Illustrator 25.4.1, SVG Export Plug-In . SVG Version: 6.00 Build 0)  -->
<svg version="1.1" id="Layer_1" xmlns="http://www.w3.org/2000/svg" xmlns:xlink="http://www.w3.org/1999/xlink" x="0px" y="0px"
	 viewBox="0 0 500 500" style="enable-background:new 0 0 500 500;" xml:space="preserve">
<style type="text/css">
	.st0{fill:none;stroke:#D5D4BE;stroke-width:7.5309;stroke-linecap:round;stroke-linejoin:round;stroke-miterlimit:10;}
</style>
<g>
	<g>
		<path class="st0" d="M205.49,112.94v82.04c0,11.85-9.61,21.46-21.46,21.46h0c-11.85,0-21.46-9.61-21.46-21.46v-82.04"/>
		<line class="st0" x1="184.03" y1="112.94" x2="184.03" y2="177.98"/>
		<line class="st0" x1="163.75" y1="181.1" x2="204.31" y2="181.1"/>
		<line class="st0" x1="184.03" y1="216.43" x2="184.03" y2="387.58"/>
	</g>
	<g>
		<path class="st0" d="M251.99,387.58V112.94c0,0-72.6,86.56-0.42,184.62"/>
	</g>
	<g>
		<line class="st0" x1="307.32" y1="228.75" x2="307.32" y2="387.58"/>
		<path class="st0" d="M336.49,172.85c0,32.24-29.18,55.9-29.18,55.9s-29.18-23.66-29.18-55.9s7.9-60.27,29.18-60.27
			S336.49,140.61,336.49,172.85z"/>
	</g>
</g>
</svg>
