<?xml version="1.0" encoding="utf-8"?>
<!-- Generator: Adobe Illustrator 25.4.1, SVG Export Plug-In . SVG Version: 6.00 Build 0)  -->
<svg version="1.1" id="Layer_1" xmlns="http://www.w3.org/2000/svg" xmlns:xlink="http://www.w3.org/1999/xlink" x="0px" y="0px"
	 viewBox="0 0 468.78 194.71" style="enable-background:new 0 0 468.78 194.71;" xml:space="preserve">
<style type="text/css">
	.st0{fill:#594F52;}
</style>
<g>
	<path class="st0" d="M109.46,121.41c-0.63,0-1.28,0.42-2.43,1.55c-3.08,3.04-14.41,10.4-20.23,13.13c-3.69,1.9-6.74,2.86-9.07,2.86
		c-3.68,0-5.33-3.58-5.33-7.12c0-2.48,1.45-5.64,2.72-8.43c1.04-2.28,1.94-4.24,1.93-5.67c-0.13-0.8-0.34-2-1.6-2
		c-0.01,0-0.01,0-0.02,0l-0.67,0.14c-0.39,0-1.03-1.08-1.59-2.03c-1.42-2.38-3.56-5.98-8.2-5.98c-1.48,0-3.29,0.48-5.37,1.43
		c-7.16,3.17-21.34,19.07-21.34,25.29c0,2.48,2.17,4.42,4.93,4.42c5.8,0,15.88-6.96,21.9-11.11c1.5-1.03,3.03-2.09,3.94-2.65
		c-0.47,1.31-1.22,3.75-1.22,6.58c0,2.48,0.69,10.57,9.6,10.57c3.09,0,6.94-1.05,11.45-3.14c8.38-4.07,21.43-13.62,21.63-16.52
		C110.5,121.76,109.94,121.41,109.46,121.41z M43.67,134.49c-0.17,0-0.28-0.01-0.36-0.01c0-0.06,0-0.12,0-0.18
		c0-1.5,3.95-7.36,8.84-12.36c0.73-0.68,1.38-1.3,1.97-1.86c4.37-4.15,5.41-5.14,8.99-5.52c2.77,0,4.74,3.9,5.13,4.93
		c-1.05,1.45-10.99,8.76-16.9,11.69l-0.02,0.01C47.3,133.37,44.72,134.49,43.67,134.49z M432.12,121.25c-0.47,0-0.89,0.21-1.45,0.59
		c-8.54,6.73-24.44,19.26-40.08,19.26c-5.76,0-9.07-2.54-9.07-6.97c0-1.83,0.41-3.89,1.19-6.07c1.08-2.28,1.25-2.44,2.52-2.44
		l1.46,0.16c3.44,0,8.77-2.51,13.56-6.4c5.11-4.14,8.16-8.64,8.16-12.02c0-3.04-1.13-4.5-3.84-4.88c-6.4,0-18.62,11.53-24.18,21.01
		c-3.23,2.92-7.25,6.96-11.51,11.22c-9.66,9.68-20.61,20.66-27.57,24.16c-3.75,2-7.37,3.01-10.77,3.01
		c-7.83,0-12.03-5.46-12.49-16.2c0-13.59,10.12-38.38,13.06-39.14c5.75-1.11,21-14.01,41.82-35.39
		c26.63-26.35,36.84-40.5,37.65-52.26c0-5.43-3.02-6.57-5.55-6.57c-4.12,0-10.16,3.05-17.02,8.6
		c-14.95,12.7-35.93,39.04-52.21,65.53c-7.9,12.83-13.82,24.58-17.6,34.94l-2.74-0.13c-5.72,0-10.84,1.03-15.79,2.02
		c-2.43,0.49-4.95,0.99-7.41,1.34c0.03-0.19,0.12-0.44,0.21-0.69c0.08-0.24,0.17-0.49,0.23-0.72c0.83-2.95,1.27-5.88,1.26-8.49
		c-0.33-7.02-3.2-11.42-8.14-12.39l-3.47-0.31c-14.11,0-25.69,14.04-34.32,25c4.54-10.91,13.25-30.13,18.7-37.26
		c2.54-1.87,20.05-18.52,31.75-34.9c2.1,0.71,2.92,1.48,3.5,2.25c1.52,1.66,3.18,2.49,4.94,2.49c2.95,0,4.77-2.05,4.77-3.96
		l-0.01-0.25c-0.04-0.25-0.04-0.48-0.04-0.7c0-2-0.77-2.92-8.55-3.92c-0.56-0.07-1.13-0.13-1.7-0.19c0.14-0.21,0.27-0.42,0.41-0.64
		c4.04-6.4,10.82-18.04,10.82-24.15c0-2.87-1.31-4.26-4-4.26c-0.98,0-1.84,0.23-2.62,0.69c-4.7,2.72-12.19,11.93-22.25,27.38
		c-4.92-0.12-10.03-0.17-14.97-0.22c-4.06-0.04-8.08-0.08-11.93-0.16l-26.29-0.15c-12.02,0-23.45,0.14-34.88,0.43
		c1.89-3.08,3.92-6.29,6.07-9.68c6.11-9.64,12.42-19.62,16.58-28.4c0.99-1.96,1.77-3.5,1.77-4.56c0-0.46-0.2-1.95-2.75-1.95
		c-3.73,0-9.63,10.27-15.86,21.71c-0.64,1.17-1.23,2.25-1.76,3.21c-1.39,2.6-6.21,11.65-10.28,19.88
		c-17.52,1.12-30.63,1.95-41.11,2.61c-22.54,1.42-32.83,2.07-48.56,3.22c-0.3,0-0.49-0.02-0.6-0.04l0.22-0.78l0.02-0.16
		c0-1.78-1.72-3.34-3.69-3.34c-1.77,0-12.64,3.66-14.01,4.56l-0.16,0.16c-0.39,0.58-0.87,1.91-1.03,3.39c0,2.55,2.55,2.88,4.77,2.88
		c1.17,0,2.66-0.17,4.55-0.38c0.68-0.08,1.41-0.16,2.18-0.24c13.74-0.95,28.31-2.4,42.41-3.8c17.74-1.76,36.08-3.59,53.24-4.47
		c-0.37,0.81-0.78,1.56-1.19,2.28c-0.39,0.71-0.77,1.38-1.09,2.08c-1.58,3.2-4.4,6.38-6.88,9.18c-2.7,3.05-4.84,5.46-4.84,7.23
		c0,1.37,1.13,1.85,1.99,2.09c0.45,0.11,0.5,0.25,0.5,0.52c0,0.91-1.29,3.88-3.37,8.39c-9.87,22.3-25.81,61.01-32.36,79.42
		c-0.31,0.79-0.81,2-1.42,3.47c-2.51,6.02-6.7,16.1-6.69,19.77c0.44,2.16,1.48,2.61,2.28,2.61c3.21,0,6.13-11.4,6.16-11.54
		c2.52-12.48,21.02-61.73,38.21-99.27c3.58-7.49,8.04-15.66,14.44-26.46c7.45-0.29,29.93-0.45,61.87-0.45
		c10.39,0,20.23,0,26.39,0.13c-4.53,7.09-8.26,13.36-10.09,16.43c-0.6,1.01-0.97,1.64-1.11,1.84c-4.59,8.89-8.53,13.69-9.91,13.69
		c-2.34,0-5.21,1.98-5.4,4.57c0,1.34,0.51,2.15,0.97,2.86c0.4,0.63,0.74,1.17,0.74,2.07s-0.35,2.11-1.04,3.62
		c-1.13,2.55-2.59,5.72-4.16,9.15c-2.31,5.04-4.93,10.75-7.15,15.84l-0.07,0.07c-3.08,3.04-14.41,10.4-20.23,13.13
		c-3.69,1.9-6.74,2.86-9.07,2.86c-3.68,0-5.33-3.58-5.33-7.12c0-2.48,1.45-5.64,2.72-8.43c1.04-2.28,1.94-4.24,1.93-5.67
		c-0.13-0.8-0.34-2-1.6-2c-0.01,0-0.01,0-0.02,0l-0.67,0.14c-0.39,0-1.03-1.08-1.59-2.03c-1.42-2.38-3.56-5.98-8.2-5.98
		c-1.48,0-3.29,0.48-5.37,1.43c-7.16,3.17-21.34,19.07-21.34,25.29c0,2.48,2.17,4.42,4.93,4.42c5.8,0,15.88-6.96,21.9-11.11
		c1.5-1.03,3.03-2.09,3.94-2.65c-0.47,1.31-1.22,3.75-1.22,6.58c0,2.48,0.69,10.57,9.6,10.57c3.09,0,6.94-1.05,11.45-3.14
		c5.36-2.6,11.42-6.73,15.56-10.01c-1.08,2.71-1.81,4.78-2.24,6.34l-0.16,1.16c0,1.9,1.23,2.57,2.29,2.57
		c1.25,0,2.47-0.78,3.71-2.36c0.92-1.08,1.97-2.34,3.11-3.74c8.23-9.98,22.01-26.68,33.74-26.68c5.04,0.28,6.92,2.5,6.92,8.2
		c0,3.3-0.9,6.58-1.68,9.05c-0.45,1.34-0.77,1.47-2.83,2.36c-0.36,0.15-0.76,0.33-1.2,0.52c-15.55,6.55-30.23,13.62-38.83,27.92
		c-2,3.14-3.2,6.93-3.2,10.15c0,5.31,3.36,8.88,8.35,8.88c9.42,0,24.48-14.28,35.03-33.23c1.51-2.75,2.99-5.63,4.06-7.74
		c0.76-1.48,1.47-2.88,1.6-3.06l0.12-0.18c0.4-0.92,0.58-1.13,2.05-1.71c4.18-1.92,15.8-3.95,22.58-3.95l2.04,0.12
		c-2.65,7.82-3.99,14.78-3.99,20.7c0,13.25,6.57,21.81,16.75,21.81c3.48,0,7.27-0.92,11.6-2.83c4.6-2.2,6.91-4.02,13.68-10.11
		c6.71-6.46,15.73-15.33,21.9-21.8c-0.11,0.67-0.18,1.33-0.18,2.01c0,7.11,5.2,11.19,14.26,11.19c6.5,0,13.82-2.34,22.37-7.15
		c10.83-6.19,19.51-13.86,19.73-15.42C433.48,121.81,433.12,121.25,432.12,121.25z M387.21,120.97c1.62-2.34,7.97-8.76,11.8-11.29
		l0.01-0.01c2.5-1.71,3.54-1.9,3.87-1.9c0.17,0,0.23,0.03,0.2,0.05c0,1.41-3.52,5.71-11.07,10.43l-1.19,0.68
		C389.45,119.73,388.03,120.55,387.21,120.97z M332.47,102.3c1.42-3.93,13.07-22.12,18.64-30.17l0,0
		c26.13-37.89,46.29-55.15,53.95-55.15c1.65,0,2.38,0.77,2.38,2.51c0,2.43-1.46,6.21-4.13,10.65c-5.03,8.96-17.1,23.9-31.48,38.96
		C353.61,87.63,335.82,101.67,332.47,102.3z M296.23,54.26c-9.57,12.49-21.47,23.97-25.62,27.48c2.21-4.37,9.15-16.28,16.87-28.65
		C291.17,53.39,294.05,53.78,296.23,54.26z M289.54,49.8c4.09-6.47,7.25-11.17,9.15-13.65l0.02-0.02
		c2.61-3.73,8.48-10.68,10.33-10.69c0.58,0.08,0.9,0.2,0.9,1.59c0,4.49-6.11,15.76-9.7,21.68c-0.38,0.55-0.77,1.11-1.16,1.66
		C296.23,50.14,293.09,49.94,289.54,49.8z M181.14,134.49c-0.17,0-0.28-0.01-0.36-0.01c0-0.06,0-0.12,0-0.18
		c0-1.5,3.95-7.36,8.84-12.36c0.73-0.68,1.38-1.3,1.97-1.86c4.37-4.15,5.41-5.14,8.99-5.52c2.77,0,4.74,3.9,5.13,4.93
		c-1.05,1.45-10.99,8.76-16.9,11.69l-0.02,0.01C184.76,133.37,182.19,134.49,181.14,134.49z M284.59,130.84l-0.12,0.48
		c-5.43,11.35-18.1,31.16-29.09,36.14c-2.66,1.23-4.55,1.48-5.67,1.48c-3.56,0-4.09-2.73-4.09-4.35c0-2,0.71-4.51,2.11-7.43
		c8.23-15.99,31.01-25.45,36.55-26.61C284.52,130.57,284.58,130.72,284.59,130.84z"/>
	<path class="st0" d="M463.11,157.53c3.77,0.68-1.87,2.63-2.93,2.92c-3.91,1.06-8.57,1.79-12.59,1.06
		c-9.19-1.67-18.48-2.84-27.75-3.96c-52.33-6.33-105.32-8.09-157.98-6.47c-82.3,2.53-164.29,14.33-243.43,36.96
		c-2.59,0.74-10.05,2.59-12.59,1.06c-2.74-1.66,0.93-2.35,2.93-2.92c49.25-14.08,99.63-24.17,150.46-30.69
		c71.39-9.16,143.75-11.61,215.61-7.33C404.26,149.91,434.07,152.25,463.11,157.53L463.11,157.53z M47.82,89.31
		c3.71,3.24,7.71,6.06,12.01,8.46c1.17,0.65,3.34,0.13,4.57-0.11c0.29-0.06,3.16-0.83,2.43-1.24c-4.3-2.41-8.31-5.23-12.01-8.46
		c-0.87-0.76-3.56-0.09-4.57,0.11C49.89,88.15,47.15,88.73,47.82,89.31L47.82,89.31z"/>
</g>
</svg>
