<?xml version="1.0" encoding="utf-8"?>
<!-- Generator: Adobe Illustrator 25.4.1, SVG Export Plug-In . SVG Version: 6.00 Build 0)  -->
<svg version="1.1" id="Layer_1" xmlns="http://www.w3.org/2000/svg" xmlns:xlink="http://www.w3.org/1999/xlink" x="0px" y="0px"
	 viewBox="0 0 500 500" style="enable-background:new 0 0 500 500;" xml:space="preserve">
<style type="text/css">
	.st0{fill:none;stroke:#D5D4BE;stroke-width:8.0063;stroke-linecap:round;stroke-linejoin:round;stroke-miterlimit:10;}
</style>
<g>
	<g>
		<path class="st0" d="M364.23,166.99l-61.67,61.67c-8.91,8.91-23.35,8.91-32.26,0l0,0c-8.91-8.91-8.91-23.35,0-32.26l61.67-61.67"
			/>
		<line class="st0" x1="348.1" y1="150.86" x2="299.2" y2="199.76"/>
		<line class="st0" x1="281.62" y1="186.85" x2="312.11" y2="217.34"/>
		<line class="st0" x1="226.17" y1="272.79" x2="141.64" y2="357.32"/>
		<line class="st0" x1="270.3" y1="228.66" x2="260.61" y2="238.35"/>
	</g>
	<g>
		<path class="st0" d="M356.16,349.26L149.7,142.8c0,0,10.49,119.65,138.47,139.1"/>
	</g>
	<path class="st0" d="M158.99,203.48c-7.2,13.96-11.27,29.81-11.27,46.6c0,56.23,45.58,101.81,101.81,101.81
		s101.81-45.58,101.81-101.81c0-16.37-3.86-31.84-10.73-45.54"/>
	<path class="st0" d="M294.18,158.55c-13.48-6.59-28.63-10.29-44.65-10.29c-22.86,0-43.95,7.53-60.95,20.25"/>
	<path class="st0" d="M142.09,164.26c-18.81,23.52-30.06,53.35-30.06,85.81c0,75.94,61.56,137.5,137.5,137.5
		s137.5-61.56,137.5-137.5c0-25.17-6.76-48.75-18.57-69.04"/>
	<path class="st0" d="M319.55,131.72c-20.51-12.16-44.45-19.14-70.02-19.14c-31.94,0-61.34,10.89-84.68,29.16"/>
</g>
</svg>
