<?xml version="1.0" encoding="utf-8"?>
<!-- Generator: Adobe Illustrator 25.4.1, SVG Export Plug-In . SVG Version: 6.00 Build 0)  -->
<svg version="1.1" id="Layer_1" xmlns="http://www.w3.org/2000/svg" xmlns:xlink="http://www.w3.org/1999/xlink" x="0px" y="0px"
	 viewBox="0 0 500 500" style="enable-background:new 0 0 500 500;" xml:space="preserve">
<style type="text/css">
	.st0{fill:none;stroke:#D5D4BE;stroke-width:8.2143;stroke-linecap:round;stroke-linejoin:round;stroke-miterlimit:10;}
</style>
<g>
	<path class="st0" d="M301.36,335.77l1.38,41.24c0.19,5.76-3.34,10.56-7.76,10.56h-90.88c-4.42,0-7.95-4.8-7.76-10.56l1.38-41.24"/>
	<path class="st0" d="M329.94,112.58l-28.28,213.77c-2.25,16.98-14.55,29.49-29,29.49h-22.7"/>
	<path class="st0" d="M226.41,355.84c-14.45,0-26.75-12.51-29-29.49l-28.28-213.77"/>
	<path class="st0" d="M173.14,141.85L173.14,141.85c0,6.24,4.54,11.3,10.14,11.3h132.46c5.6,0,10.14-5.06,10.14-11.3v0"/>
</g>
</svg>
