<?xml version="1.0" encoding="utf-8"?>
<!-- Generator: Adobe Illustrator 25.4.1, SVG Export Plug-In . SVG Version: 6.00 Build 0)  -->
<svg version="1.1" id="Layer_1" xmlns="http://www.w3.org/2000/svg" xmlns:xlink="http://www.w3.org/1999/xlink" x="0px" y="0px"
	 viewBox="0 0 500 500" style="enable-background:new 0 0 500 500;" xml:space="preserve">
<style type="text/css">
	.st0{fill:none;stroke:#D5D4BE;stroke-width:8.0113;stroke-linecap:round;stroke-linejoin:round;stroke-miterlimit:10;}
</style>
<g>
	<g>
		<path class="st0" d="M368.13,211.63c-16.63-57.23-69.46-99.05-132.05-99.05c-75.94,0-137.5,61.56-137.5,137.5
			s61.56,137.5,137.5,137.5c3.83,0,7.62-0.16,11.37-0.46"/>
		<path class="st0" d="M324.28,205.14c-16.37-32.07-49.72-54.03-88.2-54.03c-54.66,0-98.97,44.31-98.97,98.97
			c0,49.08,35.73,89.82,82.6,97.62"/>
	</g>
	<g>
		<path class="st0" d="M354.46,384.18L354.46,384.18c-25.48,4.53-51.56,4.53-77.04,0h0c-21.74-3.87-38.76-20.89-42.63-42.63l0,0
			c-4.53-25.48-4.53-51.56,0-77.04l0,0c3.87-21.74,20.89-38.76,42.63-42.63l0,0c25.48-4.53,51.56-4.53,77.04,0l0,0
			c21.74,3.87,38.76,20.89,42.63,42.63v0c4.53,25.48,4.53,51.56,0,77.04v0C393.22,363.3,376.2,380.32,354.46,384.18z"/>
		<path class="st0" d="M343.52,361.14L343.52,361.14c-18.24,3.24-36.92,3.24-55.16,0h0c-15.57-2.77-27.76-14.95-30.52-30.52v0
			c-3.24-18.24-3.24-36.92,0-55.16v0c2.77-15.57,14.95-27.76,30.52-30.52h0c18.24-3.24,36.92-3.24,55.16,0h0
			c15.57,2.77,27.76,14.95,30.52,30.52v0c3.24,18.24,3.24,36.92,0,55.16v0C371.28,346.18,359.09,358.37,343.52,361.14z"/>
	</g>
</g>
</svg>
