<?xml version="1.0" encoding="utf-8"?>
<!-- Generator: Adobe Illustrator 25.4.1, SVG Export Plug-In . SVG Version: 6.00 Build 0)  -->
<svg version="1.1" id="Layer_1" xmlns="http://www.w3.org/2000/svg" xmlns:xlink="http://www.w3.org/1999/xlink" x="0px" y="0px"
	 viewBox="0 0 1310 500" style="enable-background:new 0 0 1310 500;" xml:space="preserve">
<style type="text/css">
	.st0{fill:none;stroke:#D5D4BE;stroke-width:8.2003;stroke-miterlimit:10;}
	.st1{fill:#FFFFFF;}
</style>
<g>
	<path class="st0" d="M1231.01,388.29H72.97c-34.8,0-62.99-28.19-62.99-62.99V174.7c0-34.8,28.19-62.99,62.99-62.99h1158.04
		c34.79,0,62.99,28.19,62.99,62.99V325.3C1294,360.1,1265.81,388.29,1231.01,388.29z"/>
	<g>
		<path class="st1" d="M248.88,289.25l-0.96-8.16h-0.37c-3.64,5.04-10.53,9.64-19.81,9.64c-13.06,0-19.81-9.2-19.81-18.55
			c0-15.65,13.87-24.19,38.88-24.04v-1.34c0-5.34-1.48-14.99-14.69-14.99c-6.01,0-12.32,1.85-16.84,4.82l-2.67-7.72
			c5.34-3.49,13.06-5.71,21.22-5.71c19.81,0,24.56,13.5,24.56,26.41v24.19c0,5.64,0.3,11.05,1.04,15.51h-10.54V289.25z
			 M247.1,256.23c-12.83-0.3-27.38,2-27.38,14.54c0,7.64,5.04,11.2,11.05,11.2c8.38,0,13.73-5.34,15.65-10.83
			c0.37-1.19,0.67-2.52,0.67-3.71V256.23z"/>
		<path class="st1" d="M277.44,242.06c0-6.68-0.15-12.17-0.52-17.51h10.31l0.52,10.39h0.37c3.64-6.16,9.64-11.87,20.33-11.87
			c8.83,0,15.51,5.34,18.32,12.98h0.3c2-3.64,4.53-6.38,7.2-8.38c3.86-2.97,8.16-4.53,14.32-4.53c8.53,0,21.22,5.64,21.22,28.04
			v38.06h-11.5v-36.58c0-12.39-4.53-19.88-14.02-19.88c-6.68,0-11.87,4.97-13.87,10.68c-0.52,1.63-0.96,3.71-0.96,5.86v39.91h-11.5
			v-38.73c0-10.31-4.53-17.73-13.5-17.73c-7.34,0-12.69,5.86-14.54,11.72c-0.67,1.71-0.96,3.71-0.96,5.71v39.02h-11.5L277.44,242.06
			L277.44,242.06z"/>
		<path class="st1" d="M415.51,277.23c3.49,2.3,9.64,4.67,15.51,4.67c8.53,0,12.54-4.3,12.54-9.64c0-5.64-3.34-8.68-12.02-11.87
			c-11.65-4.15-17.06-10.54-17.06-18.33c0-10.39,8.38-18.99,22.33-18.99c6.53,0,12.32,1.85,15.88,4.01l-2.97,8.53
			c-2.52-1.63-7.2-3.71-13.21-3.71c-6.97,0-10.83,4.01-10.83,8.83c0,5.34,3.86,7.72,12.32,10.98c11.2,4.3,16.99,9.87,16.99,19.51
			c0,11.35-8.83,19.36-24.19,19.36c-7.12,0-13.65-1.71-18.18-4.38L415.51,277.23z"/>
		<path class="st1" d="M476.5,259.05c0.3,15.88,10.46,22.41,22.18,22.41c8.38,0,13.5-1.48,17.88-3.34l2,8.38
			c-4.15,1.85-11.2,4.01-21.52,4.01c-19.88,0-31.83-13.06-31.83-32.57s11.5-34.87,30.34-34.87c21.07,0,26.71,18.55,26.71,30.42
			c0,2.37-0.3,4.3-0.37,5.49h-45.4V259.05z M510.99,250.59c0.15-7.49-3.04-19.07-16.32-19.07c-11.87,0-17.06,10.98-18.03,19.07
			H510.99z"/>
		<path class="st1" d="M572.72,289.25l-0.96-8.16h-0.37c-3.64,5.04-10.53,9.64-19.81,9.64c-13.06,0-19.81-9.2-19.81-18.55
			c0-15.65,13.87-24.19,38.88-24.04v-1.34c0-5.34-1.48-14.99-14.69-14.99c-6.01,0-12.32,1.85-16.84,4.82l-2.67-7.72
			c5.34-3.49,13.06-5.71,21.22-5.71c19.81,0,24.56,13.5,24.56,26.41v24.19c0,5.64,0.3,11.05,1.04,15.51h-10.54V289.25z
			 M570.94,256.23c-12.83-0.3-27.38,2-27.38,14.54c0,7.64,5.04,11.2,11.05,11.2c8.38,0,13.73-5.34,15.65-10.83
			c0.37-1.19,0.67-2.52,0.67-3.71V256.23z"/>
		<path class="st1" d="M601.28,244.73c0-7.64-0.15-14.17-0.52-20.18h10.31l0.37,12.69h0.52c2.97-8.68,10.02-14.17,17.88-14.17
			c1.34,0,2.3,0.15,3.34,0.37v11.05c-1.19-0.3-2.37-0.37-4.01-0.37c-8.31,0-14.17,6.31-15.73,15.06c-0.3,1.63-0.52,3.49-0.52,5.49
			v34.5h-11.65V244.73z"/>
		<path class="st1" d="M689.64,286.8c-3.04,1.63-9.87,3.71-18.55,3.71c-19.51,0-32.2-13.21-32.2-33.01
			c0-19.88,13.65-34.35,34.72-34.35c6.97,0,13.06,1.71,16.32,3.34l-2.67,9.05c-2.82-1.63-7.2-3.04-13.65-3.04
			c-14.84,0-22.85,10.98-22.85,24.41c0,14.99,9.64,24.19,22.41,24.19c6.68,0,11.05-1.71,14.39-3.19L689.64,286.8z"/>
		<path class="st1" d="M703.44,194.36h11.72v40.36h0.3c1.85-3.34,4.82-6.31,8.38-8.31c3.49-2,7.64-3.34,12.02-3.34
			c8.68,0,22.55,5.34,22.55,27.67v38.5H746.7v-37.17c0-10.39-3.86-19.22-14.99-19.22c-7.64,0-13.65,5.34-15.73,11.72
			c-0.67,1.63-0.82,3.34-0.82,5.64v39.02h-11.72L703.44,194.36L703.44,194.36z"/>
		<path class="st1" d="M790.62,206.45c0.15,4.01-2.82,7.2-7.49,7.2c-4.15,0-7.05-3.19-7.05-7.2c0-4.15,3.04-7.34,7.34-7.34
			C787.8,199.03,790.62,202.3,790.62,206.45z M777.56,289.25v-64.69h11.72v64.69H777.56z"/>
		<path class="st1" d="M808.79,242.06c0-6.68-0.15-12.17-0.52-17.51h10.39l0.67,10.68h0.3c3.19-6.16,10.68-12.17,21.37-12.17
			c8.98,0,22.85,5.34,22.85,27.52v38.58h-11.72v-37.24c0-10.39-3.86-19.07-14.99-19.07c-7.72,0-13.73,5.49-15.73,12.02
			c-0.52,1.48-0.82,3.49-0.82,5.49v38.88h-11.72v-47.19H808.79z"/>
		<path class="st1" d="M938.63,224.55c-0.3,4.67-0.52,9.87-0.52,17.81v37.54c0,14.84-2.97,23.89-9.2,29.53
			c-6.31,5.86-15.36,7.72-23.52,7.72c-7.72,0-16.32-1.85-21.52-5.34l2.97-8.98c4.3,2.67,10.98,5.04,18.99,5.04
			c12.02,0,20.85-6.31,20.85-22.55v-7.2h-0.3c-3.64,6.01-10.53,10.83-20.55,10.83c-16.02,0-27.52-13.65-27.52-31.53
			c0-21.89,14.32-34.35,29.08-34.35c11.2,0,17.36,5.86,20.18,11.2h0.3l0.52-9.72H938.63z M926.46,250.07c0-2-0.15-3.71-0.67-5.34
			c-2.15-6.83-7.86-12.39-16.4-12.39c-11.2,0-19.22,9.5-19.22,24.41c0,12.69,6.38,23.22,19.07,23.22c7.2,0,13.73-4.53,16.32-12.02
			c0.67-2,0.96-4.3,0.96-6.31v-11.57H926.46z"/>
		<path class="st1" d="M987.07,289.25v-55.72h-9.05v-8.98h9.05v-3.04c0-9.05,2-17.36,7.49-22.55c4.38-4.3,10.31-6.01,15.73-6.01
			c4.15,0,7.72,0.96,10.02,1.85l-1.63,9.05c-1.71-0.82-4.15-1.48-7.49-1.48c-10.02,0-12.54,8.83-12.54,18.7v3.49h15.65v8.98h-15.65
			v55.72L987.07,289.25L987.07,289.25z"/>
		<path class="st1" d="M1081.59,256.38c0,23.89-16.54,34.35-32.2,34.35c-17.51,0-31.01-12.84-31.01-33.24
			c0-21.66,14.17-34.35,32.05-34.35C1069.05,223.14,1081.59,236.57,1081.59,256.38z M1030.33,257.05c0,14.17,8.16,24.85,19.66,24.85
			c11.2,0,19.66-10.54,19.66-25.15c0-10.98-5.49-24.85-19.36-24.85C1036.34,231.9,1030.33,244.73,1030.33,257.05z"/>
		<path class="st1" d="M1096.43,244.73c0-7.64-0.15-14.17-0.52-20.18h10.31l0.37,12.69h0.52c2.97-8.68,10.02-14.17,17.88-14.17
			c1.34,0,2.3,0.15,3.34,0.37v11.05c-1.19-0.3-2.37-0.37-4.01-0.37c-8.31,0-14.17,6.31-15.73,15.06c-0.3,1.63-0.52,3.49-0.52,5.49
			v34.5h-11.65V244.73z"/>
	</g>
</g>
</svg>
