<?xml version="1.0" encoding="utf-8"?>
<!-- Generator: Adobe Illustrator 25.4.1, SVG Export Plug-In . SVG Version: 6.00 Build 0)  -->
<svg version="1.1" id="Layer_1" xmlns="http://www.w3.org/2000/svg" xmlns:xlink="http://www.w3.org/1999/xlink" x="0px" y="0px"
	 viewBox="0 0 1310 500" style="enable-background:new 0 0 1310 500;" xml:space="preserve">
<style type="text/css">
	.st0{fill:none;stroke:#D5D4BE;stroke-width:7.364;stroke-miterlimit:10;}
	.st1{fill:#FFFFFF;}
</style>
<g>
	<path class="st0" d="M1085.66,389.36H224.34c-45.81,0-82.95-37.14-82.95-82.95V193.6c0-45.81,37.14-82.95,82.95-82.95h861.32
		c45.81,0,82.95,37.14,82.95,82.95V306.4C1168.61,352.22,1131.47,389.36,1085.66,389.36z"/>
	<g>
		<path class="st1" d="M294.96,271.74c0,6.73,0.13,12.65,0.54,17.77H285l-0.67-10.63h-0.27c-3.1,5.25-9.96,12.11-21.54,12.11
			c-10.23,0-22.48-5.65-22.48-28.54v-38.09h11.85v36.07c0,12.38,3.77,20.73,14.54,20.73c7.94,0,13.46-5.52,15.61-10.77
			c0.67-1.75,1.08-3.9,1.08-6.06v-39.98h11.85V271.74z"/>
		<path class="st1" d="M314.61,245.63c0-8.35-0.27-15.08-0.54-21.27h10.63l0.54,11.17h0.27c4.85-7.94,12.52-12.65,23.15-12.65
			c15.75,0,27.59,13.33,27.59,33.11c0,23.42-14.27,35-29.61,35c-8.61,0-16.15-3.77-20.06-10.23h-0.27v35.4h-11.71V245.63z
			 M326.33,262.99c0,1.75,0.27,3.37,0.54,4.85c2.15,8.21,9.29,13.86,17.77,13.86c12.52,0,19.79-10.23,19.79-25.17
			c0-13.06-6.86-24.23-19.38-24.23c-8.08,0-15.61,5.79-17.9,14.67c-0.4,1.48-0.81,3.23-0.81,4.85V262.99z"/>
		<path class="st1" d="M391.2,193.94h11.85v95.57H391.2V193.94z"/>
		<path class="st1" d="M481.93,256.4c0,24.09-16.69,34.59-32.44,34.59c-17.63,0-31.23-12.92-31.23-33.52
			c0-21.81,14.27-34.59,32.31-34.59C469.27,222.88,481.93,236.47,481.93,256.4z M430.24,257.07c0,14.27,8.21,25.04,19.79,25.04
			c11.31,0,19.79-10.63,19.79-25.31c0-11.04-5.52-25.04-19.52-25.04C436.3,231.76,430.24,244.68,430.24,257.07z"/>
		<path class="st1" d="M532.94,289.51L532,281.3h-0.4c-3.63,5.12-10.63,9.69-19.92,9.69c-13.19,0-19.92-9.29-19.92-18.71
			c0-15.75,14-24.36,39.17-24.23v-1.35c0-5.38-1.48-15.08-14.81-15.08c-6.06,0-12.38,1.88-16.96,4.85l-2.69-7.81
			c5.38-3.5,13.19-5.79,21.4-5.79c19.92,0,24.77,13.6,24.77,26.65v24.36c0,5.65,0.27,11.17,1.08,15.61H532.94z M531.19,256.26
			c-12.92-0.27-27.59,2.02-27.59,14.67c0,7.67,5.12,11.31,11.17,11.31c8.48,0,13.86-5.38,15.75-10.9c0.4-1.21,0.67-2.56,0.67-3.77
			V256.26z"/>
		<path class="st1" d="M618.01,193.94v78.74c0,5.79,0.14,12.38,0.54,16.83h-10.63l-0.54-11.31h-0.27
			c-3.64,7.27-11.58,12.79-22.21,12.79c-15.75,0-27.86-13.33-27.86-33.11c-0.13-21.67,13.33-35,29.21-35
			c9.96,0,16.69,4.71,19.65,9.96h0.27v-38.9H618.01z M606.17,250.88c0-1.48-0.14-3.5-0.54-4.98c-1.75-7.54-8.21-13.73-17.09-13.73
			c-12.25,0-19.52,10.77-19.52,25.17c0,13.19,6.46,24.09,19.25,24.09c7.94,0,15.21-5.25,17.36-14.13c0.4-1.62,0.54-3.23,0.54-5.11
			V250.88z"/>
		<path class="st1" d="M702.27,289.51l-0.94-8.21h-0.4c-3.63,5.12-10.63,9.69-19.92,9.69c-13.19,0-19.92-9.29-19.92-18.71
			c0-15.75,14-24.36,39.17-24.23v-1.35c0-5.38-1.48-15.08-14.81-15.08c-6.06,0-12.38,1.88-16.96,4.85l-2.69-7.81
			c5.38-3.5,13.19-5.79,21.4-5.79c19.92,0,24.77,13.6,24.77,26.65v24.36c0,5.65,0.27,11.17,1.08,15.61H702.27z M700.52,256.26
			c-12.92-0.27-27.59,2.02-27.59,14.67c0,7.67,5.12,11.31,11.17,11.31c8.48,0,13.86-5.38,15.75-10.9c0.4-1.21,0.67-2.56,0.67-3.77
			V256.26z"/>
		<path class="st1" d="M731.08,241.99c0-6.73-0.14-12.25-0.54-17.63h10.5l0.67,10.77h0.27c3.23-6.19,10.77-12.25,21.54-12.25
			c9.02,0,23.02,5.38,23.02,27.73v38.9h-11.85v-37.55c0-10.5-3.9-19.25-15.08-19.25c-7.81,0-13.86,5.52-15.88,12.11
			c-0.54,1.48-0.81,3.5-0.81,5.52v39.17h-11.85V241.99z"/>
		<path class="st1" d="M847.51,206.05c0.14,4.04-2.83,7.27-7.54,7.27c-4.17,0-7.13-3.23-7.13-7.27c0-4.17,3.1-7.4,7.4-7.4
			C844.68,198.65,847.51,201.88,847.51,206.05z M834.32,289.51v-65.15h11.85v65.15H834.32z"/>
		<path class="st1" d="M880.09,205.65v18.71h16.96v9.02h-16.96v35.13c0,8.08,2.29,12.65,8.88,12.65c3.1,0,5.38-0.4,6.87-0.81
			l0.54,8.88c-2.29,0.94-5.92,1.61-10.5,1.61c-5.52,0-9.96-1.75-12.79-4.98c-3.37-3.5-4.58-9.29-4.58-16.96v-35.54h-10.1v-9.02h10.1
			v-15.61L880.09,205.65z"/>
		<path class="st1" d="M916.16,259.09c0.27,16.02,10.5,22.61,22.34,22.61c8.48,0,13.6-1.48,18.04-3.37l2.02,8.48
			c-4.17,1.88-11.31,4.04-21.67,4.04c-20.06,0-32.04-13.19-32.04-32.84c0-19.65,11.58-35.13,30.56-35.13
			c21.27,0,26.92,18.71,26.92,30.69c0,2.42-0.27,4.31-0.4,5.52H916.16z M950.89,250.61c0.13-7.54-3.1-19.25-16.42-19.25
			c-11.98,0-17.23,11.04-18.17,19.25H950.89z"/>
		<path class="st1" d="M977,241.99c0-6.73-0.13-12.25-0.54-17.63h10.36l0.54,10.5h0.4c3.63-6.19,9.69-11.98,20.46-11.98
			c8.88,0,15.61,5.38,18.44,13.06h0.27c2.02-3.63,4.58-6.46,7.27-8.48c3.9-2.96,8.21-4.58,14.4-4.58c8.61,0,21.4,5.65,21.4,28.27
			v38.36h-11.58v-36.88c0-12.52-4.58-20.06-14.13-20.06c-6.73,0-11.98,4.98-14,10.77c-0.54,1.62-0.94,3.77-0.94,5.92v40.25h-11.58
			v-39.04c0-10.36-4.58-17.9-13.59-17.9c-7.4,0-12.79,5.92-14.67,11.85c-0.67,1.75-0.94,3.77-0.94,5.79v39.3H977V241.99z"/>
	</g>
</g>
</svg>
