<?xml version="1.0" encoding="utf-8"?>
<!-- Generator: Adobe Illustrator 25.4.1, SVG Export Plug-In . SVG Version: 6.00 Build 0)  -->
<svg version="1.1" id="Layer_1" xmlns="http://www.w3.org/2000/svg" xmlns:xlink="http://www.w3.org/1999/xlink" x="0px" y="0px"
	 viewBox="0 0 500 500" style="enable-background:new 0 0 500 500;" xml:space="preserve">
<style type="text/css">
	.st0{fill:none;stroke:#D5D4BE;stroke-width:8.2143;stroke-linecap:round;stroke-linejoin:round;stroke-miterlimit:10;}
</style>
<g>
	<rect x="102.7" y="236.8" class="st0" width="237" height="149.8"/>
	<polygon class="st0" points="293.6,190.7 56.6,190.7 102.7,236.8 339.7,236.8 	"/>
	<polyline class="st0" points="376.8,190.7 392.4,190.7 399,134.7 344.1,134.7 	"/>
	<polyline class="st0" points="339.7,236.8 339.7,386.5 392.4,340.4 392.4,219.1 	"/>
	<polygon class="st0" points="389.7,212.7 442.4,166.6 392.4,190.7 339.7,236.8 	"/>
	<g>
		<line class="st0" x1="120.3" y1="190.9" x2="85.8" y2="140.1"/>
		<line class="st0" x1="131.4" y1="109.2" x2="185.4" y2="188.8"/>
		<line class="st0" x1="108.6" y1="124.6" x2="151.5" y2="189.2"/>
	</g>
	<path class="st0" d="M370.3,189.1c-17.9-47.1-63.4-80.6-116.8-80.6c-32.3,0-61.7,12.2-83.8,32.3"/>
	<path class="st0" d="M341.6,218.1c-6.8-41.9-43.2-74-87-74c-25.8,0-49,11.1-65.1,28.7"/>
</g>
</svg>
